<svg clip-rule="evenodd" fill-rule="evenodd" stroke-linejoin="round" stroke-miterlimit="2" viewBox="0 0 24 24" xmlns="http://www.w3.org/2000/svg"><path d="m0 0h24v24h-24z" fill="none"/><path d="m19 4h-14c-1.11 0-2 .9-2 2v12c0 1.1.89 2 2 2h14c1.1 0 2-.9 2-2v-12c0-1.1-.89-2-2-2zm0 14h-14v-10h14z" fill-rule="nonzero" transform="matrix(1.10859 0 0 1.125 -1.32578 -2.5)"/><path d="m8.516 13.416v-2.073h4.881v-1.925l4.826 2.961-4.826 2.962v-1.925z" transform="matrix(1.03254 0 0 1.68305 -1.8049 -8.83525)"/></svg>